# xmcd
#
# Track frame offsets: 
#        150
#        37202
#        57046
#        82872
#        111927
#        127094
#        151217
#        166238
#        194187
#        215883
#        242743
#
# Disc length: 3602 seconds
#
# Revision: 0
# Processed by: cddbd v1.5.2PL0 Copyright (c) Steve Scherf et al.
# Submitted via: ExactAudioCopy v0.90b4
#
DISCID=9f0e100b
DTITLE=Cee Cee James - Low Down Where The Snakes Crawl
DYEAR=2008
DGENRE=Blues
TTITLE0=Low Down Where The Snakes Crawl
TTITLE1=Black Raven
TTITLE2=Love Makes Change
TTITLE3=Desert Blues
TTITLE4=Roll Me Over
TTITLE5=Make It To The Other Side
TTITLE6=I'll Ask The Questions You Tell The Lies
TTITLE7=White Picket Fence
TTITLE8=Watermelon Lucy
TTITLE9=Done Love Wrong
TTITLE10=Spirit Of The Shaman
EXTD=
EXTT0=
EXTT1=
EXTT2=
EXTT3=
EXTT4=
EXTT5=
EXTT6=
EXTT7=
EXTT8=
EXTT9=
EXTT10=
PLAYORDER=
